<?xml version="1.0" encoding="iso-8859-1"?>
<svg version="1.1" id="Capa_1" xmlns="http://www.w3.org/2000/svg" xmlns:xlink="http://www.w3.org/1999/xlink" x="0px" y="0px"
	 viewBox="0 0 163.243 163.243" style="enable-background:new 0 0 163.243 163.243;" xml:space="preserve">
<g>
	<path style="fill:#010101;" d="M133.68,37.545c-0.925-0.925-2.429-0.925-3.353,0c-0.931,0.931-0.931,2.435,0,3.359
		C143.334,53.918,150.5,71.215,150.5,89.618c0,37.985-30.902,68.881-68.888,68.882c-37.979,0-68.882-30.902-68.882-68.882
		c0-37.788,30.592-68.541,68.303-68.858L67.209,34.58c-0.931,0.924-0.931,2.429,0,3.359c0.459,0.464,1.074,0.699,1.677,0.698
		s1.211-0.232,1.677-0.698l18.623-18.623L70.562,0.694c-0.931-0.925-2.429-0.925-3.353,0c-0.932,0.931-0.931,2.434,0,3.359
		L79.25,16.088C39.743,17.359,7.987,49.801,7.987,89.606c0,40.605,33.027,73.637,73.631,73.637
		c40.612,0,73.637-33.033,73.637-73.631C155.256,69.938,147.588,51.454,133.68,37.545z"/>
</g>
</svg>
